<?xml version="1.0" encoding="utf-8"?>
<!-- Generator: Adobe Illustrator 16.0.4, SVG Export Plug-In . SVG Version: 6.00 Build 0)  -->
<!DOCTYPE svg PUBLIC "-//W3C//DTD SVG 1.1//EN" "http://www.w3.org/Graphics/SVG/1.1/DTD/svg11.dtd">
<svg version="1.1"
	 id="svg3145" xmlns:dc="http://purl.org/dc/elements/1.1/" xmlns:cc="http://creativecommons.org/ns#" xmlns:rdf="http://www.w3.org/1999/02/22-rdf-syntax-ns#" xmlns:svg="http://www.w3.org/2000/svg" xmlns:sodipodi="http://sodipodi.sourceforge.net/DTD/sodipodi-0.dtd" xmlns:inkscape="http://www.inkscape.org/namespaces/inkscape" sodipodi:docname="Neues Dokument 2" inkscape:version="0.48.2 r9819" inkscape:export-filename="D:\Influins\Eclipse-workspace\Modelling_DB\DB.png" inkscape:export-xdpi="445.87866" inkscape:export-ydpi="445.87866"
	 xmlns="http://www.w3.org/2000/svg" xmlns:xlink="http://www.w3.org/1999/xlink" x="0px" y="0px" width="136.812px"
	 height="136.813px" viewBox="75.012 526.342 136.812 136.813" enable-background="new 75.012 526.342 136.812 136.813"
	 xml:space="preserve">
<path id="path4021" inkscape:connector-curvature="0" sodipodi:nodetypes="csccscc" fill="none" stroke="#000000" stroke-width="2" stroke-linecap="round" stroke-linejoin="round" d="
	M211.449,611.757c0,9.395-30.459,17.007-68.033,17.007c-37.575,0-68.029-7.612-68.029-17.007v34.018
	c0,9.389,30.454,17.006,68.029,17.006c37.574,0,68.033-7.617,68.033-17.006V611.757z"/>
<path id="path3999" inkscape:connector-curvature="0" sodipodi:nodetypes="csccscc" fill="none" stroke="#000000" stroke-width="2" stroke-linecap="round" stroke-linejoin="round" d="
	M211.449,577.745c0,9.389-30.459,17.006-68.033,17.006c-37.575,0-68.029-7.617-68.029-17.006v32.732
	c0,9.394,30.454,17.011,68.029,17.011c37.574,0,68.033-7.617,68.033-17.011V577.745z"/>
<path id="path4035" inkscape:connector-curvature="0" sodipodi:nodetypes="csccscc" fill="none" stroke="#000000" stroke-width="2" stroke-linecap="round" stroke-linejoin="round" d="
	M211.449,543.729c0,9.394-30.459,17.006-68.033,17.006c-37.575,0-68.029-7.612-68.029-17.006v32.732
	c0,9.394,30.454,17.011,68.029,17.011c37.574,0,68.033-7.617,68.033-17.011V543.729z"/>
<path id="path4027" inkscape:connector-curvature="0" fill="none" stroke="#000000" stroke-width="2" stroke-linecap="round" stroke-linejoin="round" d="
	M211.449,543.729c0,9.394-30.459,17.006-68.033,17.006c-37.575,0-68.029-7.612-68.029-17.006c0-9.395,30.454-17.012,68.029-17.012
	C180.99,526.717,211.449,534.334,211.449,543.729z"/>
</svg>
