<?xml version="1.0" encoding="utf-8"?>
<!-- Generator: Adobe Illustrator 16.0.3, SVG Export Plug-In . SVG Version: 6.00 Build 0)  -->
<!DOCTYPE svg PUBLIC "-//W3C//DTD SVG 1.1//EN" "http://www.w3.org/Graphics/SVG/1.1/DTD/svg11.dtd">
<svg version="1.1"
	 id="svg3145" xmlns:dc="http://purl.org/dc/elements/1.1/" xmlns:cc="http://creativecommons.org/ns#" xmlns:rdf="http://www.w3.org/1999/02/22-rdf-syntax-ns#" xmlns:svg="http://www.w3.org/2000/svg" xmlns:sodipodi="http://sodipodi.sourceforge.net/DTD/sodipodi-0.dtd" xmlns:inkscape="http://www.inkscape.org/namespaces/inkscape" sodipodi:docname="Neues Dokument 2" inkscape:export-ydpi="445.87866" inkscape:export-xdpi="445.87866" inkscape:export-filename="D:\Influins\Eclipse-workspace\Modelling_DB\DB.png" inkscape:version="0.48.2 r9819"
	 xmlns="http://www.w3.org/2000/svg" xmlns:xlink="http://www.w3.org/1999/xlink" x="0px" y="0px" width="32.75px" height="48.75px"
	 viewBox="75.011 614.405 32.75 48.75" enable-background="new 75.011 614.405 32.75 48.75" xml:space="preserve">
<sodipodi:namedview  showgrid="false" inkscape:cy="178.4136" inkscape:cx="372.04724" inkscape:zoom="2.0427513" borderopacity="1.0" bordercolor="#666666" pagecolor="#ffffff" id="base" inkscape:window-maximized="1" inkscape:window-y="-8" inkscape:window-x="-8" inkscape:window-height="1028" inkscape:window-width="1680" inkscape:pageshadow="2" inkscape:current-layer="layer1" inkscape:pageopacity="0.0" inkscape:document-units="px">
	</sodipodi:namedview>
<g id="layer1" inkscape:label="Ebene 1" inkscape:groupmode="layer">
	<g id="g4079" transform="matrix(0.5619111,0,0,0.5619111,-242.26786,885.20185)">
		
			<linearGradient id="path4021_1_" gradientUnits="userSpaceOnUse" x1="1421.1383" y1="-1791.6763" x2="1478.4984" y2="-1791.6763" gradientTransform="matrix(0.5619 0 0 0.4214 -233.449 343.2246)">
			<stop  offset="0" style="stop-color:#C8C8C8"/>
			<stop  offset="0.25" style="stop-color:#FFFFFF"/>
			<stop  offset="1" style="stop-color:#C8C8C8"/>
		</linearGradient>
		
			<path id="path4021" sodipodi:nodetypes="csccscc" inkscape:connector-curvature="0" fill="url(#path4021_1_)" stroke="#000000" stroke-width="0.75" stroke-linecap="round" stroke-linejoin="round" d="
			M622.258-427.864c0,5.897-12.749,10.678-28.474,10.678c-15.726,0-28.474-4.781-28.474-10.678v21.356
			c0,5.897,12.749,10.678,28.474,10.678c15.726,0,28.474-4.781,28.474-10.678V-427.864z"/>
		
			<linearGradient id="path3999_1_" gradientUnits="userSpaceOnUse" x1="1421.1383" y1="1009.3922" x2="1478.4984" y2="1009.3922" gradientTransform="matrix(0.5619 0 0 -0.4214 -233.449 -8.2137)">
			<stop  offset="0" style="stop-color:#C8C8C8"/>
			<stop  offset="0.25" style="stop-color:#FFFFFF"/>
			<stop  offset="1" style="stop-color:#C8C8C8"/>
		</linearGradient>
		
			<path id="path3999" sodipodi:nodetypes="csccscc" inkscape:connector-curvature="0" fill="url(#path3999_1_)" stroke="#000000" stroke-width="0.75" stroke-linecap="round" stroke-linejoin="round" d="
			M622.258-449.22c0,5.897-12.749,10.678-28.474,10.678c-15.726,0-28.474-4.781-28.474-10.678v20.553
			c0,5.897,12.749,10.678,28.474,10.678c15.726,0,28.474-4.781,28.474-10.678V-449.22z"/>
		
			<linearGradient id="path4035_1_" gradientUnits="userSpaceOnUse" x1="1421.1383" y1="933.9521" x2="1478.4984" y2="933.9521" gradientTransform="matrix(0.5619 0 0 -0.4214 -233.449 -61.3631)">
			<stop  offset="0" style="stop-color:#C8C8C8"/>
			<stop  offset="0.25" style="stop-color:#FFFFFF"/>
			<stop  offset="1" style="stop-color:#C8C8C8"/>
		</linearGradient>
		
			<path id="path4035" sodipodi:nodetypes="csccscc" inkscape:connector-curvature="0" fill="url(#path4035_1_)" stroke="#000000" stroke-width="0.75" stroke-linecap="round" stroke-linejoin="round" d="
			M622.258-470.576c0,5.897-12.749,10.678-28.474,10.678c-15.726,0-28.474-4.781-28.474-10.678v20.553
			c0,5.897,12.749,10.678,28.474,10.678c15.726,0,28.474-4.781,28.474-10.678V-470.576z"/>
		
			<radialGradient id="path4027_1_" cx="1472.1796" cy="2277.0566" r="28.6792" gradientTransform="matrix(0.5619 0 0 -0.2122 -233.449 12.6758)" gradientUnits="userSpaceOnUse">
			<stop  offset="0" style="stop-color:#FFFFFF"/>
			<stop  offset="1" style="stop-color:#C8C8C8"/>
		</radialGradient>
		
			<path id="path4027" inkscape:connector-curvature="0" fill="url(#path4027_1_)" stroke="#000000" stroke-width="0.75" stroke-linecap="round" stroke-linejoin="round" d="
			M622.258-470.576c0,5.897-12.749,10.678-28.474,10.678c-15.726,0-28.474-4.781-28.474-10.678s12.749-10.678,28.474-10.678
			C609.51-481.254,622.258-476.473,622.258-470.576z"/>
	</g>
</g>
</svg>
