<?xml version="1.0" encoding="UTF-8" standalone="no"?>
<!DOCTYPE svg PUBLIC "-//W3C//DTD SVG 1.1//EN" "http://www.w3.org/Graphics/SVG/1.1/DTD/svg11.dtd">
<svg width="100%" height="100%" viewBox="0 0 48 48" version="1.1" xmlns="http://www.w3.org/2000/svg" xmlns:xlink="http://www.w3.org/1999/xlink" xml:space="preserve" xmlns:serif="http://www.serif.com/" style="fill-rule:evenodd;clip-rule:evenodd;stroke-linejoin:round;stroke-miterlimit:2;">
    <path d="M38.86,25.95C38.94,25.31 39,24.66 39,24C39,23.34 38.94,22.69 38.86,22.05L43.09,18.74C43.47,18.44 43.58,17.9 43.33,17.46L39.33,10.53C39.08,10.1 38.56,9.92 38.11,10.1L33.13,12.11C32.1,11.32 30.97,10.65 29.75,10.14L29,4.84C28.91,4.37 28.5,4 28,4L20,4C19.5,4 19.09,4.37 19.01,4.84L18.26,10.14C17.04,10.65 15.91,11.31 14.88,12.11L9.9,10.1C9.45,9.93 8.93,10.1 8.68,10.53L4.68,17.46C4.43,17.89 4.54,18.43 4.92,18.74L9.14,22.05C9.06,22.69 9,23.34 9,24C9,24.66 9.06,25.31 9.14,25.95L4.92,29.26C4.54,29.56 4.43,30.1 4.68,30.54L8.68,37.47C8.93,37.9 9.45,38.08 9.9,37.9L14.88,35.89C15.91,36.68 17.04,37.35 18.26,37.86L19.01,43.16C19.09,43.63 19.5,44 20,44L28,44C28.5,44 28.91,43.63 28.99,43.16L29.74,37.86C30.96,37.35 32.09,36.69 33.12,35.89L38.1,37.9C38.55,38.07 39.07,37.9 39.32,37.47L43.32,30.54C43.57,30.11 43.46,29.57 43.08,29.26L38.86,25.95ZM24,31C20.13,31 17,27.87 17,24C17,20.13 20.13,17 24,17C27.87,17 31,20.13 31,24C31,27.87 27.87,31 24,31Z" style="fill-rule:nonzero;"/>
    <path d="M28.185,1.003L28.369,1.016L28.552,1.037L28.732,1.067L28.91,1.104L29.085,1.149L29.256,1.202L29.424,1.261L29.588,1.328L29.748,1.402L29.903,1.481L30.053,1.567L30.199,1.659L30.341,1.756L30.477,1.859L30.608,1.967L30.734,2.079L30.855,2.197L30.97,2.319L31.081,2.446L31.185,2.577L31.285,2.713L31.379,2.853L31.467,2.996L31.549,3.144L31.625,3.295L31.695,3.451L31.759,3.609L31.816,3.771L31.867,3.937L31.911,4.105L31.956,4.315L32.496,8.132L32.514,8.142L32.644,8.213L32.772,8.285L32.9,8.357L33.027,8.431L33.153,8.506L33.279,8.581L33.403,8.657L33.508,8.722L37.024,7.303L37.168,7.249L37.343,7.193L37.52,7.145L37.697,7.106L37.875,7.075L38.054,7.052L38.233,7.037L38.411,7.03L38.588,7.032L38.764,7.041L38.94,7.058L39.113,7.082L39.285,7.114L39.455,7.154L39.622,7.201L39.788,7.255L39.95,7.316L40.11,7.384L40.267,7.459L40.421,7.541L40.571,7.629L40.718,7.725L40.861,7.827L40.999,7.935L41.134,8.05L41.263,8.172L41.388,8.299L41.507,8.433L41.62,8.572L41.728,8.717L41.829,8.867L41.909,8.997L45.95,15.998L46.025,16.137L46.104,16.3L46.175,16.466L46.238,16.635L46.294,16.805L46.342,16.977L46.382,17.151L46.414,17.325L46.438,17.5L46.455,17.676L46.463,17.851L46.464,18.026L46.458,18.201L46.444,18.375L46.422,18.548L46.393,18.719L46.356,18.889L46.312,19.058L46.261,19.224L46.203,19.389L46.137,19.551L46.063,19.71L45.983,19.867L45.896,20.02L45.801,20.17L45.699,20.316L45.591,20.458L45.476,20.596L45.353,20.729L45.225,20.856L45.09,20.979L44.971,21.077L41.988,23.412L41.992,23.534L41.997,23.688L41.999,23.843L42,24L41.999,24.157L41.997,24.312L41.992,24.466L41.988,24.591L44.98,26.938L45.113,27.051L45.243,27.173L45.368,27.299L45.486,27.431L45.598,27.567L45.703,27.708L45.802,27.852L45.894,28L45.979,28.151L46.058,28.306L46.13,28.464L46.195,28.624L46.252,28.787L46.303,28.952L46.347,29.119L46.383,29.288L46.412,29.459L46.434,29.632L46.448,29.806L46.454,29.98L46.453,30.156L46.445,30.332L46.428,30.509L46.403,30.685L46.37,30.861L46.329,31.037L46.28,31.211L46.223,31.383L46.158,31.554L46.085,31.722L46.003,31.887L45.933,32.014L41.899,39.003L41.818,39.135L41.716,39.286L41.607,39.433L41.492,39.573L41.371,39.708L41.244,39.836L41.113,39.958L40.977,40.073L40.837,40.182L40.693,40.283L40.546,40.378L40.395,40.466L40.241,40.547L40.084,40.62L39.925,40.687L39.763,40.747L39.6,40.799L39.434,40.845L39.267,40.883L39.098,40.914L38.928,40.938L38.757,40.954L38.585,40.964L38.413,40.966L38.24,40.96L38.067,40.947L37.894,40.926L37.721,40.898L37.549,40.862L37.377,40.818L37.208,40.766L37.039,40.707L33.502,39.279L33.391,39.348L33.266,39.425L33.139,39.501L33.013,39.575L32.885,39.649L32.757,39.722L32.628,39.793L32.499,39.864L32.485,39.871L31.95,43.655L31.914,43.839L31.873,44.012L31.824,44.181L31.768,44.348L31.706,44.511L31.636,44.67L31.56,44.825L31.478,44.976L31.39,45.124L31.296,45.266L31.196,45.405L31.091,45.539L30.98,45.668L30.863,45.793L30.741,45.912L30.615,46.027L30.483,46.136L30.346,46.24L30.204,46.338L30.057,46.431L29.906,46.517L29.75,46.597L29.59,46.671L29.425,46.738L29.257,46.798L29.085,46.851L28.91,46.896L28.732,46.933L28.552,46.963L28.369,46.984L28.185,46.997L28.035,47L19.965,47L19.815,46.997L19.631,46.984L19.448,46.963L19.268,46.933L19.09,46.896L18.915,46.851L18.743,46.798L18.575,46.738L18.41,46.671L18.25,46.597L18.094,46.517L17.943,46.431L17.796,46.338L17.654,46.24L17.517,46.136L17.385,46.027L17.259,45.912L17.137,45.793L17.02,45.668L16.909,45.539L16.804,45.405L16.704,45.266L16.61,45.124L16.522,44.976L16.44,44.825L16.364,44.67L16.294,44.511L16.232,44.348L16.176,44.181L16.127,44.012L16.086,43.839L16.05,43.655L15.514,39.868L15.496,39.858L15.366,39.787L15.238,39.715L15.11,39.643L14.983,39.569L14.857,39.495L14.731,39.419L14.607,39.343L14.502,39.278L10.986,40.697L10.842,40.751L10.667,40.807L10.49,40.855L10.313,40.894L10.135,40.925L9.956,40.948L9.777,40.963L9.599,40.97L9.422,40.968L9.246,40.959L9.07,40.942L8.897,40.918L8.725,40.886L8.555,40.846L8.388,40.799L8.222,40.746L8.06,40.684L7.9,40.616L7.743,40.541L7.589,40.46L7.439,40.371L7.292,40.275L7.149,40.173L7.011,40.065L6.876,39.95L6.747,39.828L6.622,39.701L6.503,39.567L6.39,39.428L6.282,39.283L6.181,39.133L6.101,39.003L2.06,32.002L1.985,31.863L1.906,31.7L1.835,31.534L1.772,31.365L1.716,31.195L1.668,31.023L1.628,30.849L1.596,30.675L1.572,30.5L1.555,30.324L1.547,30.149L1.546,29.974L1.552,29.799L1.566,29.625L1.588,29.452L1.617,29.281L1.654,29.111L1.698,28.942L1.749,28.776L1.807,28.611L1.873,28.449L1.947,28.29L2.027,28.133L2.114,27.98L2.209,27.83L2.311,27.684L2.419,27.542L2.534,27.404L2.657,27.271L2.785,27.144L2.92,27.021L3.038,26.924L6.012,24.591L6.008,24.466L6.003,24.312L6.001,24.157L6,24L6.001,23.843L6.003,23.688L6.008,23.534L6.012,23.409L3.02,21.062L2.887,20.949L2.757,20.827L2.632,20.701L2.514,20.569L2.402,20.433L2.297,20.292L2.198,20.148L2.106,20L2.021,19.849L1.942,19.694L1.87,19.536L1.805,19.376L1.748,19.213L1.697,19.048L1.653,18.881L1.617,18.712L1.588,18.541L1.566,18.368L1.552,18.194L1.546,18.02L1.547,17.844L1.555,17.668L1.572,17.491L1.597,17.315L1.63,17.139L1.671,16.963L1.72,16.789L1.777,16.617L1.842,16.446L1.915,16.278L1.997,16.113L2.067,15.986L6.101,8.997L6.182,8.865L6.284,8.714L6.393,8.567L6.509,8.427L6.629,8.292L6.756,8.164L6.887,8.042L7.023,7.927L7.163,7.818L7.307,7.717L7.454,7.622L7.605,7.534L7.759,7.453L7.916,7.38L8.075,7.313L8.237,7.253L8.4,7.201L8.566,7.155L8.733,7.117L8.902,7.086L9.072,7.062L9.243,7.046L9.415,7.036L9.587,7.034L9.76,7.04L9.933,7.053L10.106,7.074L10.279,7.102L10.451,7.138L10.623,7.182L10.792,7.234L10.961,7.293L14.498,8.721L14.609,8.652L14.734,8.575L14.861,8.499L14.987,8.425L15.115,8.351L15.243,8.278L15.372,8.207L15.501,8.136L15.515,8.129L16.05,4.345L16.086,4.161L16.127,3.988L16.176,3.819L16.232,3.652L16.294,3.489L16.364,3.33L16.44,3.175L16.522,3.024L16.61,2.876L16.704,2.734L16.804,2.595L16.909,2.461L17.02,2.332L17.137,2.207L17.258,2.088L17.385,1.973L17.517,1.864L17.654,1.76L17.796,1.662L17.943,1.57L18.094,1.483L18.25,1.403L18.41,1.329L18.575,1.262L18.743,1.202L18.915,1.149L19.09,1.104L19.268,1.067L19.448,1.037L19.631,1.016L19.815,1.003L19.965,1L28.035,1L28.185,1.003ZM20,4L19.953,4.001L19.907,4.004L19.862,4.01L19.817,4.017L19.773,4.026L19.73,4.037L19.687,4.05L19.646,4.065L19.605,4.082L19.565,4.1L19.526,4.12L19.488,4.142L19.451,4.165L19.416,4.19L19.381,4.216L19.347,4.244L19.315,4.273L19.284,4.303L19.255,4.335L19.227,4.368L19.2,4.402L19.174,4.437L19.15,4.473L19.128,4.51L19.107,4.549L19.088,4.588L19.071,4.628L19.055,4.669L19.041,4.711L19.029,4.753L19.018,4.796L19.01,4.84L18.26,10.14L18.146,10.188L18.032,10.237L17.919,10.287L17.807,10.338L17.695,10.39L17.583,10.443L17.472,10.496L17.362,10.55L17.252,10.606L17.143,10.662L17.034,10.719L16.926,10.777L16.818,10.835L16.711,10.895L16.605,10.955L16.499,11.016L16.393,11.078L16.288,11.141L16.184,11.205L16.08,11.27L15.977,11.335L15.875,11.401L15.773,11.468L15.671,11.536L15.57,11.605L15.47,11.675L15.37,11.745L15.271,11.817L15.172,11.889L15.074,11.962L14.977,12.035L14.88,12.11L9.9,10.1L9.858,10.085L9.815,10.072L9.772,10.061L9.729,10.052L9.685,10.045L9.642,10.04L9.598,10.036L9.555,10.035L9.511,10.035L9.468,10.038L9.425,10.042L9.382,10.048L9.34,10.056L9.298,10.065L9.256,10.077L9.215,10.09L9.175,10.105L9.135,10.122L9.096,10.14L9.057,10.16L9.02,10.182L8.983,10.205L8.947,10.231L8.913,10.258L8.879,10.286L8.847,10.316L8.816,10.348L8.786,10.381L8.757,10.416L8.73,10.452L8.704,10.49L8.68,10.53L4.68,17.46L4.658,17.501L4.637,17.542L4.619,17.584L4.603,17.626L4.589,17.668L4.577,17.711L4.567,17.754L4.559,17.798L4.552,17.841L4.548,17.885L4.546,17.929L4.546,17.972L4.548,18.016L4.551,18.059L4.556,18.102L4.564,18.145L4.573,18.187L4.584,18.23L4.597,18.271L4.611,18.312L4.627,18.353L4.646,18.392L4.665,18.431L4.687,18.47L4.71,18.507L4.735,18.544L4.762,18.579L4.79,18.614L4.82,18.647L4.852,18.679L4.885,18.71L4.92,18.74L9.14,22.05L9.111,22.29L9.084,22.532L9.072,22.653L9.061,22.774L9.05,22.896L9.04,23.017L9.031,23.139L9.023,23.262L9.016,23.384L9.011,23.507L9.006,23.63L9.003,23.753L9.001,23.876L9,24L9.001,24.124L9.003,24.247L9.006,24.37L9.011,24.493L9.016,24.616L9.023,24.738L9.031,24.861L9.04,24.982L9.05,25.104L9.061,25.226L9.072,25.347L9.084,25.468L9.111,25.71L9.14,25.95L4.92,29.26L4.885,29.289L4.852,29.319L4.82,29.35L4.79,29.383L4.762,29.417L4.735,29.452L4.71,29.488L4.687,29.525L4.665,29.563L4.646,29.601L4.627,29.641L4.611,29.681L4.597,29.722L4.584,29.763L4.573,29.805L4.564,29.848L4.556,29.89L4.551,29.934L4.548,29.977L4.546,30.021L4.546,30.065L4.548,30.109L4.552,30.153L4.559,30.197L4.567,30.24L4.577,30.284L4.589,30.328L4.603,30.371L4.619,30.414L4.637,30.456L4.658,30.498L4.68,30.54L8.68,37.47L8.704,37.51L8.73,37.548L8.757,37.584L8.786,37.619L8.816,37.653L8.847,37.685L8.879,37.715L8.913,37.744L8.947,37.771L8.983,37.797L9.02,37.82L9.057,37.842L9.096,37.863L9.135,37.882L9.175,37.899L9.215,37.914L9.256,37.927L9.298,37.939L9.34,37.949L9.382,37.956L9.425,37.962L9.468,37.967L9.511,37.969L9.555,37.969L9.598,37.968L9.642,37.964L9.685,37.958L9.729,37.951L9.772,37.941L9.815,37.93L9.858,37.916L9.9,37.9L14.88,35.89L14.977,35.964L15.074,36.037L15.172,36.109L15.271,36.181L15.37,36.251L15.47,36.321L15.57,36.391L15.671,36.459L15.773,36.527L15.875,36.594L15.977,36.661L16.08,36.726L16.184,36.791L16.288,36.855L16.393,36.918L16.499,36.98L16.605,37.041L16.711,37.102L16.818,37.162L16.926,37.221L17.034,37.279L17.143,37.336L17.252,37.393L17.362,37.448L17.472,37.503L17.583,37.557L17.695,37.609L17.807,37.661L17.919,37.712L18.032,37.763L18.146,37.812L18.26,37.86L19.01,43.16L19.018,43.204L19.029,43.247L19.041,43.289L19.055,43.331L19.071,43.372L19.088,43.412L19.107,43.451L19.128,43.49L19.15,43.527L19.174,43.563L19.2,43.598L19.227,43.632L19.255,43.665L19.284,43.697L19.315,43.727L19.348,43.756L19.381,43.784L19.416,43.81L19.451,43.835L19.488,43.858L19.526,43.88L19.565,43.9L19.605,43.918L19.646,43.935L19.687,43.95L19.73,43.963L19.773,43.974L19.817,43.983L19.862,43.99L19.907,43.996L19.953,43.999L20,44L28,44L28.047,43.999L28.093,43.996L28.138,43.99L28.183,43.983L28.227,43.974L28.27,43.963L28.313,43.95L28.354,43.935L28.395,43.918L28.435,43.9L28.474,43.88L28.512,43.858L28.549,43.835L28.584,43.81L28.619,43.784L28.653,43.756L28.685,43.727L28.716,43.697L28.745,43.665L28.773,43.632L28.8,43.598L28.826,43.563L28.85,43.527L28.872,43.49L28.893,43.451L28.912,43.412L28.929,43.372L28.945,43.331L28.959,43.289L28.971,43.247L28.982,43.204L28.99,43.16L29.74,37.86L29.854,37.812L29.968,37.763L30.081,37.713L30.193,37.662L30.305,37.61L30.417,37.557L30.528,37.504L30.638,37.45L30.748,37.394L30.857,37.338L30.966,37.281L31.074,37.223L31.182,37.165L31.289,37.105L31.395,37.045L31.501,36.984L31.607,36.922L31.712,36.859L31.816,36.795L31.92,36.73L32.023,36.665L32.125,36.599L32.227,36.532L32.329,36.464L32.43,36.395L32.53,36.325L32.63,36.255L32.729,36.183L32.828,36.111L32.926,36.038L33.023,35.965L33.12,35.89L38.1,37.9L38.142,37.915L38.185,37.928L38.228,37.939L38.271,37.948L38.315,37.955L38.358,37.96L38.402,37.964L38.445,37.965L38.489,37.965L38.532,37.962L38.575,37.958L38.618,37.952L38.66,37.944L38.702,37.935L38.744,37.923L38.785,37.91L38.825,37.895L38.865,37.878L38.904,37.86L38.943,37.84L38.98,37.818L39.017,37.795L39.053,37.769L39.087,37.743L39.121,37.714L39.153,37.684L39.184,37.652L39.214,37.619L39.243,37.584L39.27,37.548L39.296,37.51L39.32,37.47L43.32,30.54L43.342,30.499L43.363,30.458L43.381,30.416L43.397,30.374L43.411,30.332L43.423,30.289L43.433,30.246L43.441,30.202L43.448,30.159L43.452,30.115L43.454,30.071L43.454,30.028L43.452,29.984L43.449,29.941L43.444,29.898L43.436,29.855L43.427,29.813L43.416,29.77L43.403,29.729L43.389,29.688L43.373,29.647L43.354,29.608L43.335,29.569L43.313,29.53L43.29,29.493L43.265,29.456L43.238,29.421L43.21,29.386L43.18,29.353L43.148,29.321L43.115,29.29L43.08,29.26L38.86,25.95L38.889,25.71L38.916,25.468L38.928,25.347L38.939,25.226L38.95,25.104L38.96,24.983L38.969,24.861L38.977,24.738L38.984,24.616L38.989,24.493L38.994,24.37L38.997,24.247L38.999,24.124L39,24L38.999,23.876L38.997,23.753L38.994,23.63L38.989,23.507L38.984,23.384L38.977,23.262L38.969,23.139L38.96,23.018L38.95,22.896L38.939,22.774L38.928,22.653L38.916,22.532L38.889,22.29L38.86,22.05L43.09,18.74L43.125,18.711L43.158,18.681L43.19,18.65L43.22,18.617L43.248,18.583L43.275,18.548L43.3,18.512L43.323,18.475L43.345,18.437L43.364,18.399L43.383,18.359L43.399,18.319L43.413,18.278L43.426,18.237L43.437,18.195L43.446,18.153L43.454,18.11L43.459,18.066L43.462,18.023L43.464,17.979L43.464,17.935L43.462,17.891L43.458,17.847L43.451,17.803L43.443,17.76L43.433,17.716L43.421,17.672L43.407,17.629L43.391,17.586L43.373,17.544L43.352,17.502L43.33,17.46L39.33,10.53L39.306,10.49L39.28,10.452L39.253,10.416L39.224,10.381L39.194,10.347L39.163,10.315L39.131,10.285L39.097,10.256L39.063,10.229L39.027,10.203L38.99,10.18L38.953,10.158L38.914,10.137L38.875,10.118L38.835,10.101L38.795,10.086L38.754,10.073L38.712,10.061L38.67,10.051L38.628,10.044L38.585,10.038L38.542,10.033L38.499,10.031L38.455,10.031L38.412,10.032L38.368,10.036L38.325,10.042L38.281,10.049L38.238,10.059L38.195,10.07L38.152,10.084L38.11,10.1L33.13,12.11L33.033,12.036L32.936,11.963L32.838,11.891L32.739,11.819L32.64,11.749L32.54,11.679L32.44,11.609L32.339,11.541L32.237,11.473L32.135,11.406L32.033,11.339L31.93,11.274L31.826,11.209L31.722,11.145L31.617,11.082L31.511,11.02L31.405,10.959L31.299,10.898L31.192,10.838L31.084,10.779L30.976,10.721L30.867,10.664L30.758,10.607L30.648,10.552L30.538,10.497L30.427,10.443L30.315,10.391L30.203,10.339L30.091,10.288L29.978,10.237L29.864,10.188L29.75,10.14L29,4.84L28.991,4.796L28.979,4.753L28.966,4.711L28.952,4.669L28.935,4.628L28.917,4.588L28.897,4.549L28.876,4.51L28.853,4.473L28.829,4.437L28.803,4.402L28.776,4.368L28.747,4.335L28.717,4.303L28.686,4.273L28.654,4.244L28.62,4.216L28.585,4.19L28.549,4.165L28.512,4.142L28.474,4.12L28.435,4.1L28.395,4.082L28.355,4.065L28.313,4.05L28.27,4.037L28.227,4.026L28.183,4.017L28.138,4.01L28.093,4.004L28.047,4.001L28,4L20,4ZM24.091,17.001L24.181,17.002L24.271,17.005L24.361,17.009L24.45,17.014L24.539,17.02L24.628,17.028L24.716,17.036L24.805,17.046L24.892,17.056L24.98,17.068L25.067,17.081L25.154,17.094L25.24,17.109L25.326,17.125L25.412,17.142L25.497,17.16L25.582,17.179L25.667,17.199L25.751,17.22L25.834,17.242L25.918,17.265L26.001,17.289L26.083,17.314L26.165,17.34L26.247,17.367L26.328,17.395L26.408,17.424L26.489,17.454L26.568,17.485L26.648,17.517L26.726,17.55L26.805,17.583L26.882,17.618L26.96,17.653L27.037,17.69L27.113,17.727L27.189,17.765L27.264,17.804L27.338,17.844L27.413,17.885L27.486,17.927L27.559,17.969L27.632,18.012L27.703,18.057L27.775,18.102L27.845,18.148L27.916,18.194L27.985,18.242L28.054,18.29L28.122,18.34L28.19,18.389L28.257,18.44L28.323,18.492L28.389,18.544L28.454,18.597L28.519,18.651L28.583,18.706L28.646,18.761L28.708,18.817L28.77,18.874L28.831,18.931L28.892,18.99L28.951,19.049L29.01,19.108L29.069,19.169L29.126,19.23L29.183,19.292L29.239,19.354L29.294,19.417L29.349,19.481L29.403,19.546L29.456,19.611L29.508,19.677L29.56,19.743L29.611,19.81L29.66,19.878L29.71,19.946L29.758,20.015L29.806,20.084L29.852,20.155L29.898,20.225L29.943,20.297L29.988,20.368L30.031,20.441L30.073,20.514L30.115,20.587L30.156,20.662L30.196,20.736L30.235,20.811L30.273,20.887L30.31,20.963L30.347,21.04L30.382,21.118L30.417,21.195L30.45,21.274L30.483,21.352L30.515,21.432L30.546,21.511L30.576,21.592L30.605,21.672L30.633,21.753L30.66,21.835L30.686,21.917L30.711,21.999L30.735,22.082L30.758,22.166L30.78,22.249L30.801,22.333L30.821,22.418L30.84,22.503L30.858,22.588L30.875,22.674L30.891,22.76L30.906,22.846L30.919,22.933L30.932,23.02L30.944,23.108L30.954,23.195L30.964,23.284L30.972,23.372L30.98,23.461L30.986,23.55L30.991,23.639L30.995,23.729L30.998,23.819L30.999,23.909L31,24L30.999,24.091L30.998,24.181L30.995,24.271L30.991,24.361L30.986,24.45L30.98,24.539L30.972,24.628L30.964,24.716L30.954,24.805L30.944,24.892L30.932,24.98L30.919,25.067L30.906,25.154L30.891,25.24L30.875,25.326L30.858,25.412L30.84,25.497L30.821,25.582L30.801,25.667L30.78,25.751L30.758,25.834L30.735,25.918L30.711,26.001L30.686,26.083L30.66,26.165L30.633,26.247L30.605,26.328L30.576,26.408L30.546,26.489L30.515,26.568L30.483,26.648L30.45,26.726L30.417,26.805L30.382,26.882L30.347,26.96L30.31,27.037L30.273,27.113L30.235,27.189L30.196,27.264L30.156,27.338L30.115,27.413L30.073,27.486L30.031,27.559L29.988,27.632L29.943,27.703L29.898,27.775L29.852,27.845L29.806,27.916L29.758,27.985L29.71,28.054L29.66,28.122L29.611,28.19L29.56,28.257L29.508,28.323L29.456,28.389L29.403,28.454L29.349,28.519L29.294,28.583L29.239,28.646L29.183,28.708L29.126,28.77L29.069,28.831L29.01,28.892L28.951,28.951L28.892,29.01L28.831,29.069L28.77,29.126L28.708,29.183L28.646,29.239L28.583,29.294L28.519,29.349L28.454,29.403L28.389,29.456L28.323,29.508L28.257,29.56L28.19,29.611L28.122,29.66L28.054,29.71L27.985,29.758L27.916,29.806L27.845,29.852L27.775,29.898L27.703,29.943L27.632,29.988L27.559,30.031L27.486,30.073L27.413,30.115L27.338,30.156L27.264,30.196L27.189,30.235L27.113,30.273L27.037,30.31L26.96,30.347L26.882,30.382L26.805,30.417L26.726,30.45L26.648,30.483L26.568,30.515L26.489,30.546L26.408,30.576L26.328,30.605L26.247,30.633L26.165,30.66L26.083,30.686L26.001,30.711L25.918,30.735L25.834,30.758L25.751,30.78L25.667,30.801L25.582,30.821L25.497,30.84L25.412,30.858L25.326,30.875L25.24,30.891L25.154,30.906L25.067,30.919L24.98,30.932L24.892,30.944L24.805,30.954L24.716,30.964L24.628,30.972L24.539,30.98L24.45,30.986L24.361,30.991L24.271,30.995L24.181,30.998L24.091,30.999L24,31L23.909,30.999L23.819,30.998L23.729,30.995L23.639,30.991L23.55,30.986L23.461,30.98L23.372,30.972L23.284,30.964L23.195,30.954L23.108,30.944L23.02,30.932L22.933,30.919L22.846,30.906L22.76,30.891L22.674,30.875L22.588,30.858L22.503,30.84L22.418,30.821L22.333,30.801L22.249,30.78L22.166,30.758L22.082,30.735L21.999,30.711L21.917,30.686L21.835,30.66L21.753,30.633L21.672,30.605L21.592,30.576L21.511,30.546L21.432,30.515L21.352,30.483L21.274,30.45L21.195,30.417L21.118,30.382L21.04,30.347L20.963,30.31L20.887,30.273L20.811,30.235L20.736,30.196L20.662,30.156L20.587,30.115L20.514,30.073L20.441,30.031L20.368,29.988L20.297,29.943L20.225,29.898L20.155,29.852L20.084,29.806L20.015,29.758L19.946,29.71L19.878,29.66L19.81,29.611L19.743,29.56L19.677,29.508L19.611,29.456L19.546,29.403L19.481,29.349L19.417,29.294L19.354,29.239L19.292,29.183L19.23,29.126L19.169,29.069L19.108,29.01L19.049,28.951L18.99,28.892L18.931,28.831L18.874,28.77L18.817,28.708L18.761,28.646L18.706,28.583L18.651,28.519L18.597,28.454L18.544,28.389L18.492,28.323L18.44,28.257L18.389,28.19L18.34,28.122L18.29,28.054L18.242,27.985L18.194,27.916L18.148,27.845L18.102,27.775L18.057,27.703L18.012,27.632L17.969,27.559L17.927,27.486L17.885,27.413L17.844,27.338L17.804,27.264L17.765,27.189L17.727,27.113L17.69,27.037L17.653,26.96L17.618,26.882L17.583,26.805L17.55,26.726L17.517,26.648L17.485,26.568L17.454,26.489L17.424,26.408L17.395,26.328L17.367,26.247L17.34,26.165L17.314,26.083L17.289,26.001L17.265,25.918L17.242,25.834L17.22,25.751L17.199,25.667L17.179,25.582L17.16,25.497L17.142,25.412L17.125,25.326L17.109,25.24L17.094,25.154L17.081,25.067L17.068,24.98L17.056,24.892L17.046,24.805L17.036,24.716L17.028,24.628L17.02,24.539L17.014,24.45L17.009,24.361L17.005,24.271L17.002,24.181L17.001,24.091L17,24L17.001,23.909L17.002,23.819L17.005,23.729L17.009,23.639L17.014,23.55L17.02,23.461L17.028,23.372L17.036,23.284L17.046,23.195L17.056,23.108L17.068,23.02L17.081,22.933L17.094,22.846L17.109,22.76L17.125,22.674L17.142,22.588L17.16,22.503L17.179,22.418L17.199,22.333L17.22,22.249L17.242,22.166L17.265,22.082L17.289,21.999L17.314,21.917L17.34,21.835L17.367,21.753L17.395,21.672L17.424,21.592L17.454,21.511L17.485,21.432L17.517,21.352L17.55,21.274L17.583,21.195L17.618,21.118L17.653,21.04L17.69,20.963L17.727,20.887L17.765,20.811L17.804,20.736L17.844,20.662L17.885,20.587L17.927,20.514L17.969,20.441L18.012,20.368L18.057,20.297L18.102,20.225L18.148,20.155L18.194,20.084L18.242,20.015L18.29,19.946L18.34,19.878L18.389,19.81L18.44,19.743L18.492,19.677L18.544,19.611L18.597,19.546L18.651,19.481L18.706,19.417L18.761,19.354L18.817,19.292L18.874,19.23L18.931,19.169L18.99,19.108L19.049,19.049L19.108,18.99L19.169,18.931L19.23,18.874L19.292,18.817L19.354,18.761L19.417,18.706L19.481,18.651L19.546,18.597L19.611,18.544L19.677,18.492L19.743,18.44L19.81,18.389L19.878,18.34L19.946,18.29L20.015,18.242L20.084,18.194L20.155,18.148L20.225,18.102L20.297,18.057L20.368,18.012L20.441,17.969L20.514,17.927L20.587,17.885L20.662,17.844L20.736,17.804L20.811,17.765L20.887,17.727L20.963,17.69L21.04,17.653L21.118,17.618L21.195,17.583L21.274,17.55L21.352,17.517L21.432,17.485L21.511,17.454L21.592,17.424L21.672,17.395L21.753,17.367L21.835,17.34L21.917,17.314L21.999,17.289L22.082,17.265L22.166,17.242L22.249,17.22L22.333,17.199L22.418,17.179L22.503,17.16L22.588,17.142L22.674,17.125L22.76,17.109L22.846,17.094L22.933,17.081L23.02,17.068L23.108,17.056L23.195,17.046L23.284,17.036L23.372,17.028L23.461,17.02L23.55,17.014L23.639,17.009L23.729,17.005L23.819,17.002L23.909,17.001L24,17L24.091,17.001ZM23.947,20L23.895,20.001L23.843,20.003L23.791,20.005L23.739,20.008L23.688,20.012L23.637,20.016L23.586,20.021L23.536,20.026L23.485,20.032L23.435,20.039L23.385,20.046L23.336,20.054L23.286,20.063L23.237,20.072L23.189,20.081L23.14,20.092L23.092,20.102L23.044,20.114L22.996,20.126L22.948,20.138L22.901,20.151L22.854,20.165L22.807,20.179L22.76,20.194L22.714,20.21L22.668,20.225L22.622,20.242L22.576,20.259L22.531,20.276L22.486,20.294L22.441,20.313L22.397,20.332L22.352,20.352L22.308,20.372L22.265,20.393L22.221,20.414L22.178,20.436L22.135,20.458L22.093,20.481L22.051,20.504L22.009,20.528L21.967,20.552L21.926,20.577L21.885,20.602L21.844,20.628L21.803,20.654L21.763,20.681L21.724,20.708L21.684,20.736L21.645,20.764L21.606,20.792L21.568,20.821L21.53,20.851L21.492,20.881L21.455,20.911L21.418,20.942L21.381,20.973L21.345,21.005L21.309,21.037L21.274,21.07L21.239,21.103L21.204,21.136L21.17,21.17L21.136,21.204L21.103,21.239L21.07,21.274L21.037,21.309L21.005,21.345L20.973,21.381L20.942,21.418L20.911,21.455L20.881,21.492L20.851,21.53L20.821,21.568L20.792,21.606L20.764,21.645L20.736,21.684L20.708,21.724L20.681,21.763L20.654,21.803L20.628,21.844L20.602,21.885L20.577,21.926L20.552,21.967L20.528,22.009L20.504,22.051L20.481,22.093L20.458,22.135L20.436,22.178L20.414,22.221L20.393,22.265L20.372,22.308L20.352,22.352L20.332,22.397L20.313,22.441L20.294,22.486L20.276,22.531L20.259,22.576L20.242,22.622L20.225,22.668L20.21,22.714L20.194,22.76L20.179,22.807L20.165,22.854L20.151,22.901L20.138,22.948L20.126,22.996L20.114,23.044L20.102,23.092L20.092,23.14L20.081,23.189L20.072,23.237L20.063,23.286L20.054,23.336L20.046,23.385L20.039,23.435L20.032,23.485L20.026,23.536L20.021,23.586L20.016,23.637L20.012,23.688L20.008,23.739L20.005,23.791L20.003,23.843L20.001,23.895L20,23.947L20,24L20,24.053L20.001,24.105L20.003,24.157L20.005,24.209L20.008,24.261L20.012,24.312L20.016,24.363L20.021,24.414L20.026,24.464L20.032,24.515L20.039,24.565L20.046,24.615L20.054,24.664L20.063,24.714L20.072,24.763L20.081,24.811L20.092,24.86L20.102,24.908L20.114,24.956L20.126,25.004L20.138,25.052L20.151,25.099L20.165,25.146L20.179,25.193L20.194,25.24L20.21,25.286L20.225,25.332L20.242,25.378L20.259,25.424L20.276,25.469L20.294,25.514L20.313,25.559L20.332,25.603L20.352,25.648L20.372,25.692L20.393,25.735L20.414,25.779L20.436,25.822L20.458,25.865L20.481,25.907L20.504,25.949L20.528,25.991L20.552,26.033L20.577,26.074L20.602,26.115L20.628,26.156L20.654,26.197L20.681,26.237L20.708,26.276L20.736,26.316L20.764,26.355L20.792,26.394L20.821,26.432L20.851,26.47L20.881,26.508L20.911,26.545L20.942,26.582L20.973,26.619L21.005,26.655L21.037,26.691L21.07,26.726L21.103,26.761L21.136,26.796L21.17,26.83L21.204,26.864L21.239,26.897L21.274,26.93L21.309,26.963L21.345,26.995L21.381,27.027L21.418,27.058L21.455,27.089L21.492,27.119L21.53,27.149L21.568,27.179L21.606,27.208L21.645,27.236L21.684,27.264L21.724,27.292L21.763,27.319L21.803,27.346L21.844,27.372L21.885,27.398L21.926,27.423L21.967,27.448L22.009,27.472L22.051,27.496L22.093,27.519L22.135,27.542L22.178,27.564L22.221,27.586L22.265,27.607L22.308,27.628L22.352,27.648L22.397,27.668L22.441,27.687L22.486,27.706L22.531,27.724L22.576,27.741L22.622,27.758L22.668,27.775L22.714,27.79L22.76,27.806L22.807,27.821L22.854,27.835L22.901,27.849L22.948,27.862L22.996,27.874L23.044,27.886L23.092,27.898L23.14,27.908L23.189,27.919L23.237,27.928L23.286,27.937L23.336,27.946L23.385,27.954L23.435,27.961L23.485,27.968L23.536,27.974L23.586,27.979L23.637,27.984L23.688,27.988L23.739,27.992L23.791,27.995L23.843,27.997L23.895,27.999L23.947,28L24,28L24.053,28L24.105,27.999L24.157,27.997L24.209,27.995L24.261,27.992L24.312,27.988L24.363,27.984L24.414,27.979L24.464,27.974L24.515,27.968L24.565,27.961L24.615,27.954L24.664,27.946L24.714,27.937L24.763,27.928L24.811,27.919L24.86,27.908L24.908,27.898L24.956,27.886L25.004,27.874L25.052,27.862L25.099,27.849L25.146,27.835L25.193,27.821L25.24,27.806L25.286,27.79L25.332,27.775L25.378,27.758L25.424,27.741L25.469,27.724L25.514,27.706L25.559,27.687L25.603,27.668L25.648,27.648L25.692,27.628L25.735,27.607L25.779,27.586L25.822,27.564L25.865,27.542L25.907,27.519L25.949,27.496L25.991,27.472L26.033,27.448L26.074,27.423L26.115,27.398L26.156,27.372L26.197,27.346L26.237,27.319L26.276,27.292L26.316,27.264L26.355,27.236L26.394,27.208L26.432,27.179L26.47,27.149L26.508,27.119L26.545,27.089L26.582,27.058L26.619,27.027L26.655,26.995L26.691,26.963L26.726,26.93L26.761,26.897L26.796,26.864L26.83,26.83L26.864,26.796L26.897,26.761L26.93,26.726L26.963,26.691L26.995,26.655L27.027,26.619L27.058,26.582L27.089,26.545L27.119,26.508L27.149,26.47L27.179,26.432L27.208,26.394L27.236,26.355L27.264,26.316L27.292,26.276L27.319,26.237L27.346,26.197L27.372,26.156L27.398,26.115L27.423,26.074L27.448,26.033L27.472,25.991L27.496,25.949L27.519,25.907L27.542,25.865L27.564,25.822L27.586,25.779L27.607,25.735L27.628,25.692L27.648,25.648L27.668,25.603L27.687,25.559L27.706,25.514L27.724,25.469L27.741,25.424L27.758,25.378L27.775,25.332L27.79,25.286L27.806,25.24L27.821,25.193L27.835,25.146L27.849,25.099L27.862,25.052L27.874,25.004L27.886,24.956L27.898,24.908L27.908,24.86L27.919,24.811L27.928,24.763L27.937,24.714L27.946,24.664L27.954,24.615L27.961,24.565L27.968,24.515L27.974,24.464L27.979,24.414L27.984,24.363L27.988,24.312L27.992,24.261L27.995,24.209L27.997,24.157L27.999,24.105L28,24.053L28,24L28,23.947L27.999,23.895L27.997,23.843L27.995,23.791L27.992,23.739L27.988,23.688L27.984,23.637L27.979,23.586L27.974,23.536L27.968,23.485L27.961,23.435L27.954,23.385L27.946,23.336L27.937,23.286L27.928,23.237L27.919,23.189L27.908,23.14L27.898,23.092L27.886,23.044L27.874,22.996L27.862,22.948L27.849,22.901L27.835,22.854L27.821,22.807L27.806,22.76L27.79,22.714L27.775,22.668L27.758,22.622L27.741,22.576L27.724,22.531L27.706,22.486L27.687,22.441L27.668,22.397L27.648,22.352L27.628,22.308L27.607,22.265L27.586,22.221L27.564,22.178L27.542,22.135L27.519,22.093L27.496,22.051L27.472,22.009L27.448,21.967L27.423,21.926L27.398,21.885L27.372,21.844L27.346,21.803L27.319,21.763L27.292,21.724L27.264,21.684L27.236,21.645L27.208,21.606L27.179,21.568L27.149,21.53L27.119,21.492L27.089,21.455L27.058,21.418L27.027,21.381L26.995,21.345L26.963,21.309L26.93,21.274L26.897,21.239L26.864,21.204L26.83,21.17L26.796,21.136L26.761,21.103L26.726,21.07L26.691,21.037L26.655,21.005L26.619,20.973L26.582,20.942L26.545,20.911L26.508,20.881L26.47,20.851L26.432,20.821L26.394,20.792L26.355,20.764L26.316,20.736L26.276,20.708L26.237,20.681L26.197,20.654L26.156,20.628L26.115,20.602L26.074,20.577L26.033,20.552L25.991,20.528L25.949,20.504L25.907,20.481L25.865,20.458L25.822,20.436L25.779,20.414L25.735,20.393L25.692,20.372L25.648,20.352L25.603,20.332L25.559,20.313L25.514,20.294L25.469,20.276L25.424,20.259L25.378,20.242L25.332,20.225L25.286,20.21L25.24,20.194L25.193,20.179L25.146,20.165L25.099,20.151L25.052,20.138L25.004,20.126L24.956,20.114L24.908,20.102L24.86,20.092L24.811,20.081L24.763,20.072L24.714,20.063L24.664,20.054L24.615,20.046L24.565,20.039L24.515,20.032L24.464,20.026L24.414,20.021L24.363,20.016L24.312,20.012L24.261,20.008L24.209,20.005L24.157,20.003L24.105,20.001L24.053,20L24,20L23.947,20Z" style="fill:white;"/>
</svg>
